# xmcd
# 
# Track frame offsets:
#     150
#     13670
#     34066
#     55448
#     78714
#     96749
#     115904
#     137468
#     164396
#     188316
#     209245
#     233476
#     246893
#     267670
#     287012
# 
# Disc length: 4122
# 
# Revision: 1
# Processed by: cddbd v1.5.2PL0 Copyright (c) Steve Scherf et al.
# Submitted via: BonkEnc v1.0.15
# 
DISCID=db10180f
DTITLE=Teufel - Absinth
DYEAR=2010
DGENRE=New Age
TTITLE0=Tritt Ein (Intro)
TTITLE1=Der Fährmann
TTITLE2=Der Todesengel
TTITLE3=Der Dürre König
TTITLE4=Alles Nur Ein Traum
TTITLE5=Den Speise Ich
TTITLE6=Kalt Ist Mein Herz
TTITLE7=Neigt Euer Haupt
TTITLE8=Absinth
TTITLE9=Die Moritat von Mackie Messer
TTITLE10=Tick Tick Tack
TTITLE11=Schwefel
TTITLE12=Komm Näher
TTITLE13=Hymnus Codex Gigas
TTITLE14=Phantasien (Bonus)
EXTD=YEAR: 2010
EXTT0=
EXTT1=
EXTT2=
EXTT3=
EXTT4=
EXTT5=
EXTT6=
EXTT7=
EXTT8=
EXTT9=
EXTT10=
EXTT11=
EXTT12=
EXTT13=
EXTT14=
PLAYORDER=
